<?xml version="1.0" encoding="UTF-8"?>
<svg width="53.978mm" height="7.2223mm" version="1.1" viewBox="0 0 53.978 7.2223" xmlns="http://www.w3.org/2000/svg">
<g transform="translate(-16.061 -71.863)">
<g transform="matrix(.26458 0 0 .26458 -17.038 -1.2695)" aria-label="/* committrs */">
<path d="m139.22 276.91h2.9844l-13.344 26.297h-2.9531z" fill="#ccc" stroke="#ccc"/>
<path d="m143.73 297.94 3.7812-5.7969-5.6875-2.4688 0.5625-1.6094 5.875 1.9219 0.3125-6.6406h1.6875l0.3125 6.6406 5.875-1.9219 0.5625 1.6094-5.6875 2.4688 3.7812 5.7969-1.4688 1.0469-4.2188-5.5781-4.2188 5.5781z" fill="#ccc" stroke="#ccc"/>
<path d="m174.71 282.88c-1.3941 0-2.6665 0.27276-3.8398 0.82032a0.56366 0.56366 0 0 1-2e-3 2e-3c-1.1713 0.54133-2.1881 1.2945-3.0664 2.2715a0.56366 0.56366 0 0 1-2e-3 2e-3c-0.87767 0.96641-1.5595 2.0936-2.0469 3.3965-0.48552 1.298-0.72851 2.697-0.72851 4.209 0 2.2573 0.56269 3.8604 1.6289 4.9277 3.9e-4 3.8e-4 2e-3 -3.8e-4 2e-3 0 3.8e-4 3.8e-4 -3.8e-4 2e-3 0 2e-3 1.0708 1.0604 2.6381 1.6152 4.8203 1.6152 1.7874 0 3.3489-0.38256 4.7402-1.0938l0.32227-1.6641c-1.482 0.8782-3.0456 1.4492-4.7188 1.4492-1.5444 0-2.8118-0.43467-3.6602-1.3535-0.84839-0.91884-1.2324-2.2492-1.2324-3.8984 0-1.0844 0.15394-2.1695 0.45899-3.248a0.56366 0.56366 0 0 1 2e-3 -2e-3c0.31846-1.0981 0.79772-2.1098 1.4375-3.0254 0.64952-0.92948 1.4711-1.6831 2.4473-2.2441 1.0009-0.57522 2.1697-0.85742 3.4688-0.85742 1.4882 0 2.8398 0.55106 4.0762 1.418l0.32618-1.6036c-1.443-0.72472-2.9099-1.123-4.4336-1.123z" fill="#f9f9f9" stroke-width="128.5"/>
<path d="m188.65 282.73c-1.4234 0-2.6419 0.28481-3.6777 0.84179a0.41671 0.41671 0 0 1-2e-3 2e-3c-0.99986 0.52933-1.9004 1.33-2.7031 2.4238-0.80588 1.098-1.4415 2.3494-1.9082 3.7598-0.4551 1.3963-0.6836 2.8194-0.68359 4.2754 0 2.0985 0.50521 3.6295 1.4668 4.668 0.97245 1.0392 2.3775 1.5723 4.3203 1.5723 2.8099 0 4.9596-1.1405 6.5938-3.5059v-2e-3c0.73345-1.0754 1.3086-2.3106 1.7246-3.7109a0.41671 0.41671 0 0 1 2e-3 -2e-3c0.42656-1.4016 0.63867-2.7766 0.63867-4.1289 0-2.0878-0.50921-3.6083-1.4805-4.6367a0.41671 0.41671 0 0 1-2e-3 0c-0.96165-1.0283-2.3564-1.5566-4.2891-1.5566zm-0.0625 1.6055c1.1484 0 2.1059 0.42889 2.7246 1.2617 0.63853 0.8456 0.91016 2.0927 0.91016 3.7324 0 1.6814-0.27865 3.2308-0.8418 4.6387-0.55179 1.3951-1.3295 2.5355-2.334 3.3965-1.0047 0.85957-2.1897 1.3027-3.4902 1.3027-1.1578 0-2.1242-0.42609-2.7539-1.2578a0.41671 0.41671 0 0 1-2e-3 -4e-3c-0.62777-0.84506-0.89454-2.086-0.89454-3.7168 0-1.6814 0.27865-3.2308 0.8418-4.6387 0.56192-1.4048 1.3386-2.5449 2.334-3.3965 1.0143-0.86943 2.2041-1.3184 3.5059-1.3184z" fill="#f9f9f9"/>
<path d="m204 282.74c-0.59831 0-1.3211 0.33527-2.041 0.73828-0.64152 0.35914-1.4633 0.3891-1.8594 0.75196-0.15649-0.0669-1.4e-4 0.17772 0 0v-0.75196c3.9e-4 -0.1749-0.1415-0.31679-0.3164-0.3164h-0.96289c-0.1515-2.7e-4 -0.28183 0.10711-0.31055 0.25586l-3.1016 16.004c-0.0387 0.1955 0.11125 0.37748 0.31054 0.37695h1.1016c0.15149 2.7e-4 0.28182-0.10711 0.31054-0.25585l1.8359-9.4102v-4e-3c0.25132-1.2773 0.48052-2.2736 0.69531-3.0039 0.21577-0.73362 0.44554-1.2969 0.72657-1.7246 6.7e-4 -6.6e-4 1e-3 -1e-3 2e-3 -2e-3 3e-3 -5e-3 0.0965-0.0832 0.17773-0.15625 0.10352-0.036 0.21007-0.0802 0.37891-0.15234 0.20183-0.0863 0.44668-0.19304 0.69141-0.29687 0.24473-0.10386 0.49091-0.20433 0.68554-0.27735 0.0973-0.0365 0.18194-0.0654 0.24414-0.084s0.11582-0.0215 0.0742-0.0215c0.63492 0 0.94995 0.0583 1.3106 0.47656 0.35595 0.41292 0.49414 0.97347 0.49414 1.6406 0 0.44459-0.0533 0.97314-0.16016 1.6035-2e-5 2e-3 -2e-5 4e-3 0 6e-3 -0.10498 0.60868-0.24125 1.3274-0.4082 2.1621-6.7e-4 6.6e-4 -1e-3 1e-3 -2e-3 2e-3l-1.7793 9.1211c-0.0387 0.1955 0.11126 0.37749 0.31055 0.37695h1.0996c0.15149 2.7e-4 0.28182-0.10711 0.31054-0.25585l1.8359-9.4102c0.25144-1.2886 0.47618-2.2708 0.68164-2.9629 1e-5 -1e-3 1e-5 -3e-3 0-4e-3 7.3e-4 -2e-3 9.6e-4 -3e-3 2e-3 -6e-3 0.21169-0.6867 0.43801-1.2262 0.70507-1.6504 0.16246-0.0818 0.67211-0.2879 1.1856-0.46289 0.26396-0.09 0.5299-0.17294 0.75195-0.23242 0.22206-0.0595 0.41612-0.0898 0.45899-0.0898 0.36712 0 0.64408-0.057 0.82422-0.0547 0.18013 2e-3 0.2562 0.0142 0.41992 0.19922 0.35702 0.40344 0.49806 0.95859 0.49804 1.6113 0 0.47241-0.0545 1.0016-0.1621 1.5937-3e-3 0.0161-0.0274 0.23273-0.0274 0.23243l0.32617-0.13083-0.3125 0.0195c0 7e-5 3e-3 -0.0669 4e-3 -0.0703-5e-4 2e-3 -9.5e-4 2e-3 -2e-3 6e-3 -4e-3 0.0169-0.01 0.0458-0.0176 0.084-0.016 0.0763-0.0384 0.18767-0.0644 0.31836-1e-3 4e-3 -3e-3 8e-3 -4e-3 0.0117-0.0419 0.26003-0.0913 0.54926-0.15234 0.875-0.0628 0.33476-0.12079 0.62813-0.17383 0.88281-6.8e-4 1e-3 -1e-3 3e-3 -2e-3 4e-3l-1.7773 9.1152c-0.0387 0.1955 0.11126 0.37749 0.31055 0.37695h1.1016c0.1515 2.8e-4 0.28183-0.1071 0.31055-0.25585l1.9394-9.8965c2e-3 -6e-3 3e-3 -0.013 4e-3 -0.0195 0.12379-0.67087 0.24182-1.351 0.35547-2.043 2e-3 -0.0103 3e-3 -0.0207 4e-3 -0.0312 7.7e-4 -5e-3 1e-3 -9e-3 2e-3 -0.0137v-8e-3c0.10534-0.66804 0.16211-1.3264 0.16211-1.9727 0-0.95383-0.24237-1.6307-0.67968-2.0938l-6e-3 -6e-3h-2e-3l-4e-3 -4e-3c-0.42434-0.46369-1.0277-0.71484-1.877-0.71484-0.69142 0-1.4404 0.38984-2.1367 0.85547-0.63977 0.4278-1.6412 0.5699-2.0098 0.98047-0.22629 0.0195 0.0354 0.23101 0 0-0.0903-0.60479-0.33588-1.0436-0.71875-1.3516-0.3883-0.31233-0.90033-0.48438-1.5723-0.48438zm7.0058 5.4549 0.62113 0.0587-2e-3 2e-3c-4.1e-4 2e-3 -2e-3 0.01-2e-3 0.01l-4e-3 0.0137-4e-3 0.01-8e-3 0.0176 0.02-0.0533z" fill="#f9f9f9"/>
<path transform="translate(-2.409)" d="m235.71 276.49c-0.0748 0-0.0724 0.0136-0.0586 2e-3s6e-3 -0.0237-4e-3 0.043a0.44199 0.44199 0 0 1-4e-3 0.0215l-0.5293 2.6914h1.9238c0.0748 0 0.0724-0.0136 0.0586-2e-3s-6e-3 0.0237 4e-3 -0.043a0.44199 0.44199 0 0 1 4e-3 -0.0215l0.5293-2.6914zm-4.6992 6.8125-0.27539 1.3672h3.3027a0.44199 0.44199 0 0 1 0.42969 0.54297l-2.0781 8.875c-0.19154 0.81659-0.28515 1.564-0.28515 2.2422 0 1.2684 0.38635 2.123 1.1641 2.7188 0.77772 0.59579 2.0135 0.93359 3.7383 0.93359h2.8711l0.30859-1.5547h-2.7578c-0.99766 0-1.8081-0.19971-2.3887-0.67382-0.58055-0.47412-0.86524-1.2086-0.86524-2.0645 0-0.52399 0.0787-1.1025 0.23047-1.7422l2.4082-10.645z" fill="#f9f9f9"/>
<path transform="translate(-2.9393)" d="m248.02 278.33-0.8789 4.5098a0.56826 0.56826 0 0 1-0.5586 0.45898h-4.2051l-0.21289 1.0977h3.9805a0.56826 0.56826 0 0 1 0.5586 0.67773l-1.8594 9.5625a0.56826 0.56826 0 0 1-2e-3 6e-3c-0.0705 0.34261-0.13118 0.68966-0.18164 1.043a0.56826 0.56826 0 0 1 0 2e-3c-0.0483 0.3288-0.0723 0.6455-0.0723 0.94921 0 0.91532 0.21802 1.5216 0.59375 1.9219 0.42226 0.43915 0.94903 0.73501 1.6289 0.90039 0.72515 0.17639 1.4808 0.26563 2.2715 0.26563h3.0176l0.22852-1.1602h-2.543c-0.50799 0-0.9932-0.0383-1.4551-0.11719a0.56826 0.56826 0 0 1-0.0137-2e-3c-0.51848-0.10117-0.98402-0.33168-1.3398-0.6875a0.56826 0.56826 0 0 1-8e-3 -8e-3c-0.41183-0.42768-0.56445-1.0336-0.56445-1.7227 0-0.25497 0.0169-0.51782 0.0508-0.78906a0.56826 0.56826 0 0 1 4e-3 -0.0195c0.0429-0.26768 0.091-0.53519 0.14453-0.80274l-2e-3 2e-3 1.8594-9.5625a0.56826 0.56826 0 0 1 0.55859-0.45899h6.0645l0.21289-1.0977h-5.8242a0.56826 0.56826 0 0 1-0.55859-0.67578l0.82421-4.293z" fill="#f9f9f9"/>
<path d="m273.81 282.92c-1.3208 0-2.4657 0.30397-3.4824 0.91211l-2e-3 2e-3c-1.0075 0.59882-2.972 1.1039-3.625 2.2637-0.32109 0.57844-0.0617 0.6587 0 0l0.25195-2.7559h-1.3887l-3.1543 16.277h1.6309l1.5762-8.084c0.42405-2.1746 1.289-3.9381 2.6113-5.2266 6.7e-4 -6.7e-4 -1.4508 1.3876-1.4501 1.387 1.3334-1.2882 4.4565-3.3421 6.3447-3.3421 1.2201 0 2.2762 0.40364 3.2188 1.0098l0.30469-1.6191c-0.71784-0.51466-1.6158-0.82422-2.8359-0.82422z" fill="#f9f9f9"/>
<path transform="translate(-5.4142)" d="m290.05 282.88c-0.89567 0-1.7801 0.0997-2.6562 0.29883a0.56471 0.56471 0 0 1-4e-3 0c-0.85121 0.18589-1.6209 0.48699-2.3164 0.90234-0.66489 0.40343-1.1882 0.92238-1.5898 1.5762a0.56471 0.56471 0 0 1-2e-3 4e-3c-0.38317 0.61484-0.58594 1.3811-0.58594 2.3418 0 1.021 0.26535 1.7527 0.77148 2.3027 6e-4 6.5e-4 1e-3 1e-3 2e-3 2e-3 0.51999 0.55272 1.4147 1.0356 2.7129 1.3828l1.4844 0.39062a0.56471 0.56471 0 0 1 2e-3 2e-3c1.1251 0.30291 1.9689 0.65509 2.5566 1.1406 0.58981 0.48722 0.92383 1.1898 0.92383 1.9512 0 0.8636-0.34034 1.6486-0.97265 2.2051-0.5897 0.51895-1.3105 0.89652-2.1387 1.1348a0.56471 0.56471 0 0 1-6e-3 2e-3c-0.79222 0.22006-1.556 0.33203-2.291 0.33203-1.5065 0-3.177-0.53425-4.9707-1.4238l-0.34375 1.7715c1.7941 0.59962 3.4489 0.92969 4.9238 0.92969 0.91129 0 1.8229-0.11295 2.7383-0.3418a0.56471 0.56471 0 0 1 6e-3 -2e-3c0.91506-0.21646 1.743-0.5544 2.4922-1.0117 0.73474-0.44848 1.3144-1.0104 1.7578-1.6992 0.42605-0.66175 0.64453-1.4433 0.64453-2.3965 0-0.9722-0.25905-1.6987-0.76953-2.2793-0.51049-0.5806-1.3062-1.0294-2.4434-1.3125a0.56471 0.56471 0 0 1 0-2e-3l-1.123-0.28124a0.56471 0.56471 0 0 1-6e-3 0 0.56471 0.56471 0 0 1-0.0723-0.0156 0.56471 0.56471 0 0 1-0.12109-0.0273c-0.0269-9e-3 -0.088-0.0287-0.16016-0.0527l-8e-3 -4e-3c-1.3062-0.36166-2.2413-0.72272-2.8633-1.1797a0.56471 0.56471 0 0 1-6e-3 -4e-3c-0.62169-0.46944-0.99023-1.1644-0.99023-1.9199 0-1.025 0.54751-1.929 1.4746-2.5352 0.93774-0.61652 2.1226-0.90429 3.5117-0.90429 1.6018 0 3.0686 0.45182 4.4258 1.1894l0.3164-1.623c-1.2977-0.53633-2.7142-0.84375-4.3047-0.84375z" fill="#f9f9f9"/>
<path d="m298.75 296.41 3.7812-5.7969-5.6875-2.4688 0.5625-1.6094 5.875 1.9219 0.3125-6.6406h1.6875l0.3125 6.6406 5.875-1.9219 0.5625 1.6094-5.6875 2.4688 3.7812 5.7969-1.4688 1.0469-4.2188-5.5781-4.2188 5.5781z" fill="#ccc" stroke="#ccc"/>
<path d="m325.31 276.91h2.9844l-13.344 26.297h-2.9531z" fill="#ccc" stroke="#ccc"/>
<path transform="translate(6.547 .048149)" d="m248.02 278.33-0.8789 4.5098a0.56826 0.56826 0 0 1-0.5586 0.45898h-4.2051l-0.21289 1.0977h3.9805a0.56826 0.56826 0 0 1 0.5586 0.67773l-1.8594 9.5625a0.56826 0.56826 0 0 1-2e-3 6e-3c-0.0705 0.34261-0.13118 0.68966-0.18164 1.043a0.56826 0.56826 0 0 1 0 2e-3c-0.0483 0.3288-0.0723 0.6455-0.0723 0.94921 0 0.91532 0.21802 1.5216 0.59375 1.9219 0.42226 0.43915 0.94903 0.73501 1.6289 0.90039 0.72515 0.17639 1.4808 0.26563 2.2715 0.26563h3.0176l0.22852-1.1602h-2.543c-0.50799 0-0.9932-0.0383-1.4551-0.11719a0.56826 0.56826 0 0 1-0.0137-2e-3c-0.51848-0.10117-0.98402-0.33168-1.3398-0.6875a0.56826 0.56826 0 0 1-8e-3 -8e-3c-0.41183-0.42768-0.56445-1.0336-0.56445-1.7227 0-0.25497 0.0169-0.51782 0.0508-0.78906a0.56826 0.56826 0 0 1 4e-3 -0.0195c0.0429-0.26768 0.091-0.53519 0.14453-0.80274l-2e-3 2e-3 1.8594-9.5625a0.56826 0.56826 0 0 1 0.55859-0.45899h6.0645l0.21289-1.0977h-5.8242a0.56826 0.56826 0 0 1-0.55859-0.67578l0.82421-4.293z" fill="#f9f9f9"/>
<path d="m217.42 282.71c-0.59831 0-1.3211 0.33527-2.041 0.73828-0.64152 0.35914-1.4633 0.3891-1.8594 0.75196-0.15649-0.0669-1.4e-4 0.17772 0 0v-0.75196c3.9e-4 -0.1749-0.1415-0.31679-0.3164-0.3164h-0.96289c-0.1515-2.7e-4 -0.28183 0.10711-0.31055 0.25586l-3.1016 16.004c-0.0387 0.1955 0.11125 0.37748 0.31054 0.37695h1.1016c0.15149 2.7e-4 0.28182-0.10711 0.31054-0.25585l1.8359-9.4102v-4e-3c0.25132-1.2773 0.48052-2.2736 0.69531-3.0039 0.21577-0.73362 0.44554-1.2969 0.72657-1.7246 6.7e-4 -6.6e-4 1e-3 -1e-3 2e-3 -2e-3 3e-3 -5e-3 0.0965-0.0832 0.17773-0.15625 0.10352-0.036 0.21007-0.0802 0.37891-0.15234 0.20183-0.0863 0.44668-0.19304 0.69141-0.29687 0.24473-0.10386 0.49091-0.20433 0.68554-0.27735 0.0973-0.0365 0.18194-0.0654 0.24414-0.084s0.11582-0.0215 0.0742-0.0215c0.63492 0 0.94995 0.0583 1.3106 0.47656 0.35595 0.41292 0.49414 0.97347 0.49414 1.6406 0 0.44459-0.0533 0.97314-0.16016 1.6035-2e-5 2e-3 -2e-5 4e-3 0 6e-3 -0.10498 0.60868-0.24125 1.3274-0.4082 2.1621-6.7e-4 6.6e-4 -1e-3 1e-3 -2e-3 2e-3l-1.7793 9.1211c-0.0387 0.1955 0.11126 0.37749 0.31055 0.37695h1.0996c0.15149 2.7e-4 0.28182-0.10711 0.31054-0.25585l1.8359-9.4102c0.25144-1.2886 0.47618-2.2708 0.68164-2.9629 1e-5 -1e-3 1e-5 -3e-3 0-4e-3 7.3e-4 -2e-3 9.6e-4 -3e-3 2e-3 -6e-3 0.21169-0.6867 0.43801-1.2262 0.70507-1.6504 0.16246-0.0818 0.67211-0.2879 1.1856-0.46289 0.26396-0.09 0.5299-0.17294 0.75195-0.23242 0.22206-0.0595 0.41612-0.0898 0.45899-0.0898 0.36712 0 0.64408-0.057 0.82422-0.0547 0.18013 2e-3 0.2562 0.0142 0.41992 0.19922 0.35702 0.40344 0.49806 0.95859 0.49804 1.6113 0 0.47241-0.0545 1.0016-0.1621 1.5937-3e-3 0.0161-0.0274 0.23273-0.0274 0.23243l0.32617-0.13083-0.3125 0.0195c0 7e-5 3e-3 -0.0669 4e-3 -0.0703-5e-4 2e-3 -9.5e-4 2e-3 -2e-3 6e-3 -4e-3 0.0169-0.01 0.0458-0.0176 0.084-0.016 0.0763-0.0384 0.18767-0.0644 0.31836-1e-3 4e-3 -3e-3 8e-3 -4e-3 0.0117-0.0419 0.26003-0.0913 0.54926-0.15234 0.875-0.0628 0.33476-0.12079 0.62813-0.17383 0.88281-6.8e-4 1e-3 -1e-3 3e-3 -2e-3 4e-3l-1.7773 9.1152c-0.0387 0.1955 0.11126 0.37749 0.31055 0.37695h1.1016c0.1515 2.8e-4 0.28183-0.1071 0.31055-0.25585l1.9394-9.8965c2e-3 -6e-3 3e-3 -0.013 4e-3 -0.0195 0.12379-0.67087 0.24182-1.351 0.35547-2.043 2e-3 -0.0103 3e-3 -0.0207 4e-3 -0.0312 7.7e-4 -5e-3 1e-3 -9e-3 2e-3 -0.0137v-8e-3c0.10534-0.66804 0.16211-1.3264 0.16211-1.9727 0-0.95383-0.24237-1.6307-0.67968-2.0938l-6e-3 -6e-3h-2e-3l-4e-3 -4e-3c-0.42434-0.46369-1.0277-0.71484-1.877-0.71484-0.69142 0-1.4404 0.38984-2.1367 0.85547-0.63977 0.4278-1.6412 0.5699-2.0098 0.98047-0.22629 0.0195 0.0354 0.23101 0 0-0.0903-0.60479-0.33588-1.0436-0.71875-1.3516-0.3883-0.31233-0.90033-0.48438-1.5723-0.48438zm7.0058 5.4549 0.62113 0.0587-2e-3 2e-3c-4.1e-4 2e-3 -2e-3 0.01-2e-3 0.01l-4e-3 0.0137-4e-3 0.01-8e-3 0.0176 0.02-0.0533z" fill="#f9f9f9"/>
</g>
</g>
</svg>
